{
    "asset" : {
        "generator" : "Khronos glTF Blender I/O v1.6.16",
        "version" : "2.0"
    },
    "scene" : 0,
    "scenes" : [
        {
            "name" : "Scene",
            "nodes" : [
                0
            ]
        }
    ],
    "nodes" : [
        {
            "mesh" : 0,
            "name" : "Suzanne",
            "rotation" : [
                0.7071068286895752,
                0,
                0,
                0.7071067094802856
            ]
        }
    ],
    "materials" : [
        {
            "alphaMode" : "BLEND",
            "doubleSided" : true,
            "name" : "Suzanne_mat",
            "pbrMetallicRoughness" : {
                "baseColorFactor" : [
                    0.800000011920929,
                    0.07279299944639206,
                    0.33567100763320923,
                    0.43069300055503845
                ],
                "metallicFactor" : 0,
                "roughnessFactor" : 0.5
            }
        }
    ],
    "meshes" : [
        {
            "name" : "Suzanne_mesh",
            "primitives" : [
                {
                    "attributes" : {
                        "POSITION" : 0,
                        "NORMAL" : 1,
                        "TEXCOORD_0" : 2
                    },
                    "indices" : 3,
                    "material" : 0
                }
            ]
        }
    ],
    "accessors" : [
        {
            "bufferView" : 0,
            "componentType" : 5126,
            "count" : 1964,
            "max" : [
                1.3671879768371582,
                0.8515620231628418,
                0.984375
            ],
            "min" : [
                -1.3671879768371582,
                -0.8515620231628418,
                -0.984375
            ],
            "type" : "VEC3"
        },
        {
            "bufferView" : 1,
            "componentType" : 5126,
            "count" : 1964,
            "type" : "VEC3"
        },
        {
            "bufferView" : 2,
            "componentType" : 5126,
            "count" : 1964,
            "type" : "VEC2"
        },
        {
            "bufferView" : 3,
            "componentType" : 5123,
            "count" : 2904,
            "type" : "SCALAR"
        }
    ],
    "bufferViews" : [
        {
            "buffer" : 0,
            "byteLength" : 23568,
            "byteOffset" : 0
        },
        {
            "buffer" : 0,
            "byteLength" : 23568,
            "byteOffset" : 23568
        },
        {
            "buffer" : 0,
            "byteLength" : 15712,
            "byteOffset" : 47136
        },
        {
            "buffer" : 0,
            "byteLength" : 5808,
            "byteOffset" : 62848
        }
    ],
    "buffers" : [
        {
            "byteLength" : 68656,
            "uri" : "data:application/octet-stream;base64,"
        }
    ]
}
