{
    "asset" : {
        "generator" : "Khronos glTF Blender I/O v1.6.16",
        "version" : "2.0"
    },
    "scene" : 0,
    "scenes" : [
        {
            "name" : "Scene",
            "nodes" : [
                2
            ]
        }
    ],
    "nodes" : [
        {
            "mesh" : 0,
            "name" : "Cone",
            "rotation" : [
                -0.12356001138687134,
                0,
                0,
                0.9923371076583862
            ],
            "scale" : [
                0.5525256395339966,
                0.5525256395339966,
                0.5525256395339966
            ],
            "translation" : [
                0,
                1.3747892379760742,
                -0.4226686656475067
            ]
        },
        {
            "children" : [
                0
            ],
            "mesh" : 1,
            "name" : "Suzanne",
            "rotation" : [
                -0.2036530077457428,
                -0.06902320683002472,
                -0.3800863027572632,
                0.8996086716651917
            ],
            "scale" : [
                0.5840051174163818,
                0.5840051174163818,
                0.5840049982070923
            ]
        },
        {
            "children" : [
                1
            ],
            "mesh" : 2,
            "name" : "donut.001",
            "rotation" : [
                -0.0349343940615654,
                0.5457160472869873,
                0.42979028820991516,
                0.7185081243515015
            ],
            "scale" : [
                1.7123136520385742,
                1.7123134136199951,
                1.7123137712478638
            ]
        }
    ],
    "materials" : [
        {
            "doubleSided" : true,
            "name" : "hat.004",
            "pbrMetallicRoughness" : {
                "baseColorFactor" : [
                    0.45705848932266235,
                    0.004931468516588211,
                    0.00531299551948905,
                    1
                ],
                "metallicFactor" : 0.04958677664399147,
                "roughnessFactor" : 0.10330578684806824
            }
        },
        {
            "doubleSided" : true,
            "name" : "skin.004",
            "pbrMetallicRoughness" : {
                "baseColorFactor" : [
                    0.8000000715255737,
                    0.7261320948600769,
                    0.23066331446170807,
                    1
                ],
                "metallicFactor" : 0,
                "roughnessFactor" : 0.8057851195335388
            }
        },
        {
            "doubleSided" : true,
            "name" : "eyeballs.004",
            "pbrMetallicRoughness" : {
                "baseColorFactor" : [
                    0,
                    0,
                    0,
                    1
                ],
                "metallicFactor" : 0.8429751992225647,
                "roughnessFactor" : 0.1528925597667694
            }
        },
        {
            "doubleSided" : true,
            "name" : "metal.007",
            "pbrMetallicRoughness" : {
                "baseColorFactor" : [
                    0.800000011920929,
                    0.800000011920929,
                    0.800000011920929,
                    1
                ],
                "metallicFactor" : 0.8595041036605835,
                "roughnessFactor" : 0.24380165338516235
            }
        },
        {
            "doubleSided" : true,
            "name" : "tag.007",
            "pbrMetallicRoughness" : {
                "baseColorFactor" : [
                    0.08896774798631668,
                    0.07401485741138458,
                    0.8000000715255737,
                    1
                ],
                "metallicFactor" : 0.6611570119857788,
                "roughnessFactor" : 0.8140496015548706
            }
        }
    ],
    "meshes" : [
        {
            "name" : "ConeData.004",
            "primitives" : [
                {
                    "attributes" : {
                        "POSITION" : 0,
                        "NORMAL" : 1,
                        "TEXCOORD_0" : 2
                    },
                    "indices" : 3,
                    "material" : 0
                }
            ]
        },
        {
            "name" : "SuzanneData.004",
            "primitives" : [
                {
                    "attributes" : {
                        "POSITION" : 4,
                        "NORMAL" : 5,
                        "TEXCOORD_0" : 6
                    },
                    "indices" : 7,
                    "material" : 1
                },
                {
                    "attributes" : {
                        "POSITION" : 8,
                        "NORMAL" : 9,
                        "TEXCOORD_0" : 10
                    },
                    "indices" : 11,
                    "material" : 2
                }
            ]
        },
        {
            "name" : "TorusData.007",
            "primitives" : [
                {
                    "attributes" : {
                        "POSITION" : 12,
                        "NORMAL" : 13,
                        "TEXCOORD_0" : 14
                    },
                    "indices" : 15,
                    "material" : 3
                },
                {
                    "attributes" : {
                        "POSITION" : 16,
                        "NORMAL" : 17,
                        "TEXCOORD_0" : 18
                    },
                    "indices" : 19,
                    "material" : 4
                }
            ]
        }
    ],
    "accessors" : [
        {
            "bufferView" : 0,
            "componentType" : 5126,
            "count" : 432,
            "max" : [
                1,
                1,
                1
            ],
            "min" : [
                -1,
                -1,
                -1
            ],
            "type" : "VEC3"
        },
        {
            "bufferView" : 1,
            "componentType" : 5126,
            "count" : 432,
            "type" : "VEC3"
        },
        {
            "bufferView" : 2,
            "componentType" : 5126,
            "count" : 432,
            "type" : "VEC2"
        },
        {
            "bufferView" : 3,
            "componentType" : 5123,
            "count" : 594,
            "type" : "SCALAR"
        },
        {
            "bufferView" : 4,
            "componentType" : 5126,
            "count" : 1929,
            "max" : [
                1.3671875,
                0.984375,
                0.8515625
            ],
            "min" : [
                -1.3671875,
                -0.984375,
                -0.8515625
            ],
            "type" : "VEC3"
        },
        {
            "bufferView" : 5,
            "componentType" : 5126,
            "count" : 1929,
            "type" : "VEC3"
        },
        {
            "bufferView" : 6,
            "componentType" : 5126,
            "count" : 1929,
            "type" : "VEC2"
        },
        {
            "bufferView" : 7,
            "componentType" : 5123,
            "count" : 2856,
            "type" : "SCALAR"
        },
        {
            "bufferView" : 8,
            "componentType" : 5126,
            "count" : 48,
            "max" : [
                0.4765625,
                0.375,
                0.828125
            ],
            "min" : [
                -0.4765625,
                0.1171875,
                0.7734375
            ],
            "type" : "VEC3"
        },
        {
            "bufferView" : 9,
            "componentType" : 5126,
            "count" : 48,
            "type" : "VEC3"
        },
        {
            "bufferView" : 10,
            "componentType" : 5126,
            "count" : 48,
            "type" : "VEC2"
        },
        {
            "bufferView" : 11,
            "componentType" : 5123,
            "count" : 48,
            "type" : "SCALAR"
        },
        {
            "bufferView" : 12,
            "componentType" : 5126,
            "count" : 3300,
            "max" : [
                1.25,
                0.25,
                1.25
            ],
            "min" : [
                -1.25,
                -0.25,
                -1.25
            ],
            "type" : "VEC3"
        },
        {
            "bufferView" : 13,
            "componentType" : 5126,
            "count" : 3300,
            "type" : "VEC3"
        },
        {
            "bufferView" : 14,
            "componentType" : 5126,
            "count" : 3300,
            "type" : "VEC2"
        },
        {
            "bufferView" : 15,
            "componentType" : 5123,
            "count" : 3342,
            "type" : "SCALAR"
        },
        {
            "bufferView" : 16,
            "componentType" : 5126,
            "count" : 114,
            "max" : [
                0.9916918277740479,
                0.25,
                1.2074074745178223
            ],
            "min" : [
                -0.7609517574310303,
                -0.125,
                -1.2393059730529785
            ],
            "type" : "VEC3"
        },
        {
            "bufferView" : 17,
            "componentType" : 5126,
            "count" : 114,
            "type" : "VEC3"
        },
        {
            "bufferView" : 18,
            "componentType" : 5126,
            "count" : 114,
            "type" : "VEC2"
        },
        {
            "bufferView" : 19,
            "componentType" : 5123,
            "count" : 114,
            "type" : "SCALAR"
        }
    ],
    "bufferViews" : [
        {
            "buffer" : 0,
            "byteLength" : 5184,
            "byteOffset" : 0
        },
        {
            "buffer" : 0,
            "byteLength" : 5184,
            "byteOffset" : 5184
        },
        {
            "buffer" : 0,
            "byteLength" : 3456,
            "byteOffset" : 10368
        },
        {
            "buffer" : 0,
            "byteLength" : 1188,
            "byteOffset" : 13824
        },
        {
            "buffer" : 0,
            "byteLength" : 23148,
            "byteOffset" : 15012
        },
        {
            "buffer" : 0,
            "byteLength" : 23148,
            "byteOffset" : 38160
        },
        {
            "buffer" : 0,
            "byteLength" : 15432,
            "byteOffset" : 61308
        },
        {
            "buffer" : 0,
            "byteLength" : 5712,
            "byteOffset" : 76740
        },
        {
            "buffer" : 0,
            "byteLength" : 576,
            "byteOffset" : 82452
        },
        {
            "buffer" : 0,
            "byteLength" : 576,
            "byteOffset" : 83028
        },
        {
            "buffer" : 0,
            "byteLength" : 384,
            "byteOffset" : 83604
        },
        {
            "buffer" : 0,
            "byteLength" : 96,
            "byteOffset" : 83988
        },
        {
            "buffer" : 0,
            "byteLength" : 39600,
            "byteOffset" : 84084
        },
        {
            "buffer" : 0,
            "byteLength" : 39600,
            "byteOffset" : 123684
        },
        {
            "buffer" : 0,
            "byteLength" : 26400,
            "byteOffset" : 163284
        },
        {
            "buffer" : 0,
            "byteLength" : 6684,
            "byteOffset" : 189684
        },
        {
            "buffer" : 0,
            "byteLength" : 1368,
            "byteOffset" : 196368
        },
        {
            "buffer" : 0,
            "byteLength" : 1368,
            "byteOffset" : 197736
        },
        {
            "buffer" : 0,
            "byteLength" : 912,
            "byteOffset" : 199104
        },
        {
            "buffer" : 0,
            "byteLength" : 228,
            "byteOffset" : 200016
        }
    ],
    "buffers" : [
        {
            "byteLength" : 200244,
            "uri" : "monka.bin"
        }
    ]
}
