{
    "asset" : {
        "generator" : "Khronos glTF Blender I/O v1.6.16",
        "version" : "2.0"
    },
    "scene" : 0,
    "scenes" : [
        {
            "name" : "Scene",
            "nodes" : [
                0
            ]
        }
    ],
    "nodes" : [
        {
            "mesh" : 0,
            "name" : "botSphere",
            "rotation" : [
                0,
                0,
                -0.38429534435272217,
                0.9232103228569031
            ]
        }
    ],
    "materials" : [
        {
            "doubleSided" : true,
            "name" : "Material.012",
            "pbrMetallicRoughness" : {
                "baseColorFactor" : [
                    0.800000011920929,
                    0.800000011920929,
                    0.800000011920929,
                    1
                ],
                "metallicFactor" : 0,
                "roughnessFactor" : 0.5
            }
        },
        {
            "doubleSided" : true,
            "name" : "Material.013",
            "pbrMetallicRoughness" : {
                "baseColorFactor" : [
                    0.009450755082070827,
                    0.009450755082070827,
                    0.009450755082070827,
                    1
                ],
                "metallicFactor" : 0,
                "roughnessFactor" : 0.5
            }
        }
    ],
    "meshes" : [
        {
            "name" : "botSphereData.002",
            "primitives" : [
                {
                    "attributes" : {
                        "POSITION" : 0,
                        "NORMAL" : 1,
                        "TEXCOORD_0" : 2
                    },
                    "indices" : 3,
                    "material" : 0
                },
                {
                    "attributes" : {
                        "POSITION" : 4,
                        "NORMAL" : 5,
                        "TEXCOORD_0" : 6
                    },
                    "indices" : 7,
                    "material" : 1
                }
            ]
        }
    ],
    "accessors" : [
        {
            "bufferView" : 0,
            "componentType" : 5126,
            "count" : 2817,
            "max" : [
                0.9999997019767761,
                1,
                1.23842453956604
            ],
            "min" : [
                -1.0001845359802246,
                -1,
                -0.9999987483024597
            ],
            "type" : "VEC3"
        },
        {
            "bufferView" : 1,
            "componentType" : 5126,
            "count" : 2817,
            "type" : "VEC3"
        },
        {
            "bufferView" : 2,
            "componentType" : 5126,
            "count" : 2817,
            "type" : "VEC2"
        },
        {
            "bufferView" : 3,
            "componentType" : 5123,
            "count" : 2829,
            "type" : "SCALAR"
        },
        {
            "bufferView" : 4,
            "componentType" : 5126,
            "count" : 49,
            "max" : [
                -0.693519651889801,
                -4.371138828673793e-08,
                0.4733302593231201
            ],
            "min" : [
                -1.0001845359802246,
                -0.7271090745925903,
                -0.3753301501274109
            ],
            "type" : "VEC3"
        },
        {
            "bufferView" : 5,
            "componentType" : 5126,
            "count" : 49,
            "type" : "VEC3"
        },
        {
            "bufferView" : 6,
            "componentType" : 5126,
            "count" : 49,
            "type" : "VEC2"
        },
        {
            "bufferView" : 7,
            "componentType" : 5123,
            "count" : 51,
            "type" : "SCALAR"
        }
    ],
    "bufferViews" : [
        {
            "buffer" : 0,
            "byteLength" : 33804,
            "byteOffset" : 0
        },
        {
            "buffer" : 0,
            "byteLength" : 33804,
            "byteOffset" : 33804
        },
        {
            "buffer" : 0,
            "byteLength" : 22536,
            "byteOffset" : 67608
        },
        {
            "buffer" : 0,
            "byteLength" : 5658,
            "byteOffset" : 90144
        },
        {
            "buffer" : 0,
            "byteLength" : 588,
            "byteOffset" : 95804
        },
        {
            "buffer" : 0,
            "byteLength" : 588,
            "byteOffset" : 96392
        },
        {
            "buffer" : 0,
            "byteLength" : 392,
            "byteOffset" : 96980
        },
        {
            "buffer" : 0,
            "byteLength" : 102,
            "byteOffset" : 97372
        }
    ],
    "buffers" : [
        {
            "byteLength" : 97476,
            "uri" : "children.bin"
        }
    ]
}
