{
    "asset" : {
        "generator" : "Khronos glTF Blender I/O v1.6.16",
        "version" : "2.0"
    },
    "scene" : 0,
    "scenes" : [
        {
            "name" : "Scene",
            "nodes" : [
                0
            ]
        }
    ],
    "nodes" : [
        {
            "mesh" : 0,
            "name" : "SphereNode"
        }
    ],
    "materials" : [
        {
            "doubleSided" : true,
            "name" : "white",
            "pbrMetallicRoughness" : {
                "baseColorFactor" : [
                    0.800000011920929,
                    0.800000011920929,
                    0.800000011920929,
                    1
                ],
                "metallicFactor" : 0,
                "roughnessFactor" : 0.5
            }
        },
        {
            "doubleSided" : true,
            "name" : "blue",
            "pbrMetallicRoughness" : {
                "baseColorFactor" : [
                    0.0021727720741182566,
                    0,
                    0.8000000715255737,
                    1
                ],
                "metallicFactor" : 0,
                "roughnessFactor" : 0.800000011920929
            }
        },
        {
            "doubleSided" : true,
            "name" : "red",
            "pbrMetallicRoughness" : {
                "baseColorFactor" : [
                    0.8000000715255737,
                    0.04090391471982002,
                    0.025184916332364082,
                    1
                ],
                "metallicFactor" : 0.702479362487793,
                "roughnessFactor" : 0.13636362552642822
            }
        }
    ],
    "meshes" : [
        {
            "name" : "SphereMesh",
            "primitives" : [
                {
                    "attributes" : {
                        "POSITION" : 0,
                        "NORMAL" : 1,
                        "TEXCOORD_0" : 2
                    },
                    "indices" : 3,
                    "material" : 0
                },
                {
                    "attributes" : {
                        "POSITION" : 4,
                        "NORMAL" : 5,
                        "TEXCOORD_0" : 6
                    },
                    "indices" : 7,
                    "material" : 1
                },
                {
                    "attributes" : {
                        "POSITION" : 8,
                        "NORMAL" : 9,
                        "TEXCOORD_0" : 10
                    },
                    "indices" : 11,
                    "material" : 2
                }
            ]
        }
    ],
    "accessors" : [
        {
            "bufferView" : 0,
            "componentType" : 5126,
            "count" : 1724,
            "max" : [
                0.9999997019767761,
                1,
                0.9999994039535522
            ],
            "min" : [
                -0.9999990463256836,
                -1,
                -0.9999987483024597
            ],
            "type" : "VEC3"
        },
        {
            "bufferView" : 1,
            "componentType" : 5126,
            "count" : 1724,
            "type" : "VEC3"
        },
        {
            "bufferView" : 2,
            "componentType" : 5126,
            "count" : 1724,
            "type" : "VEC2"
        },
        {
            "bufferView" : 3,
            "componentType" : 5123,
            "count" : 2490,
            "type" : "SCALAR"
        },
        {
            "bufferView" : 4,
            "componentType" : 5126,
            "count" : 256,
            "max" : [
                0.9807851314544678,
                -0.19509032368659973,
                0.9807849526405334
            ],
            "min" : [
                -0.9807847738265991,
                -0.5555701851844788,
                -0.9807846546173096
            ],
            "type" : "VEC3"
        },
        {
            "bufferView" : 5,
            "componentType" : 5126,
            "count" : 256,
            "type" : "VEC3"
        },
        {
            "bufferView" : 6,
            "componentType" : 5126,
            "count" : 256,
            "type" : "VEC2"
        },
        {
            "bufferView" : 7,
            "componentType" : 5123,
            "count" : 384,
            "type" : "SCALAR"
        },
        {
            "bufferView" : 8,
            "componentType" : 5126,
            "count" : 4,
            "max" : [
                0.3928474485874176,
                0.8314695954322815,
                0.6532814502716064
            ],
            "min" : [
                0.21260741353034973,
                0.7071067690849304,
                0.4619397521018982
            ],
            "type" : "VEC3"
        },
        {
            "bufferView" : 9,
            "componentType" : 5126,
            "count" : 4,
            "type" : "VEC3"
        },
        {
            "bufferView" : 10,
            "componentType" : 5126,
            "count" : 4,
            "type" : "VEC2"
        },
        {
            "bufferView" : 11,
            "componentType" : 5123,
            "count" : 6,
            "type" : "SCALAR"
        }
    ],
    "bufferViews" : [
        {
            "buffer" : 0,
            "byteLength" : 20688,
            "byteOffset" : 0
        },
        {
            "buffer" : 0,
            "byteLength" : 20688,
            "byteOffset" : 20688
        },
        {
            "buffer" : 0,
            "byteLength" : 13792,
            "byteOffset" : 41376
        },
        {
            "buffer" : 0,
            "byteLength" : 4980,
            "byteOffset" : 55168
        },
        {
            "buffer" : 0,
            "byteLength" : 3072,
            "byteOffset" : 60148
        },
        {
            "buffer" : 0,
            "byteLength" : 3072,
            "byteOffset" : 63220
        },
        {
            "buffer" : 0,
            "byteLength" : 2048,
            "byteOffset" : 66292
        },
        {
            "buffer" : 0,
            "byteLength" : 768,
            "byteOffset" : 68340
        },
        {
            "buffer" : 0,
            "byteLength" : 48,
            "byteOffset" : 69108
        },
        {
            "buffer" : 0,
            "byteLength" : 48,
            "byteOffset" : 69156
        },
        {
            "buffer" : 0,
            "byteLength" : 32,
            "byteOffset" : 69204
        },
        {
            "buffer" : 0,
            "byteLength" : 12,
            "byteOffset" : 69236
        }
    ],
    "buffers" : [
        {
            "byteLength" : 69248,
            "uri" : "multiMat.bin"
        }
    ]
}
